<svg width="1145" height="789" viewBox="0 0 1145 789" fill="none" xmlns="http://www.w3.org/2000/svg">
<g clip-path="url(#clip0_3_222)">
<path d="M75.6677 635.754C55.7327 635.754 41.4396 642.827 31.9175 657.369L26.1765 666.111V584.656H0.44104V788.492H26.1765V703.064C26.1765 690.647 29.8586 680.594 37.0646 673.263C44.2705 665.932 54.2281 662.058 66.502 662.058C92.079 662.058 105.58 676.462 105.58 703.779V788.571H131.316V696.448C131.685 680.894 126.273 665.76 116.132 653.992C111.18 648.104 104.972 643.407 97.9685 640.25C90.9645 637.094 83.3431 635.557 75.6677 635.754V635.754Z" fill="#00579B"/>
<path d="M716.361 730.082L677.125 635.655H648.063L716.361 787.876L784.461 635.655H755.4L716.361 730.082Z" fill="#00579B"/>
<path d="M1129.24 653.892C1118.51 641.614 1105.22 636.389 1088.71 635.654C1050.39 633.926 1039.22 659.793 1039.22 659.793V635.555H1013.49V788.312H1039.22V702.884C1039.22 690.467 1042.9 680.415 1050.13 673.084C1057.36 665.753 1067.29 661.859 1079.57 661.859C1105.15 661.859 1118.65 676.282 1118.65 703.579V788.372H1144.38V696.348C1144.76 680.8 1139.36 665.668 1129.24 653.892V653.892Z" fill="#00579B"/>
<path d="M304.238 654.985C290.063 644.337 274.86 637.92 256.984 637.92C237.426 637.92 218.669 645.717 204.84 659.595C191.011 673.474 183.242 692.297 183.242 711.924C183.242 731.551 191.011 750.375 204.84 764.253C218.669 778.132 237.426 785.929 256.984 785.929C274.8 785.929 290.024 779.512 304.198 768.843V788.71H332.527V634.681H304.238V654.985ZM256.726 758.949C247.458 758.949 238.399 756.191 230.693 751.024C222.987 745.857 216.981 738.513 213.435 729.92C209.888 721.327 208.96 711.872 210.768 702.75C212.576 693.628 217.039 685.249 223.592 678.672C230.146 672.096 238.495 667.617 247.585 665.803C256.674 663.988 266.096 664.919 274.658 668.479C283.22 672.038 290.539 678.065 295.687 685.798C300.836 693.532 303.584 702.624 303.584 711.924C303.574 724.379 298.645 736.322 289.876 745.136C281.108 753.951 269.216 758.918 256.805 758.949H256.726Z" fill="#00579B"/>
<path d="M594.712 654.985C580.538 644.337 565.453 637.92 547.577 637.92C528.019 637.92 509.263 645.717 495.433 659.595C481.604 673.474 473.835 692.297 473.835 711.924C473.835 731.551 481.604 750.375 495.433 764.253C509.263 778.132 528.019 785.929 547.577 785.929C565.394 785.929 580.518 779.512 594.693 768.843V788.71H623.041V634.681H594.712V654.985ZM547.498 758.949C538.229 758.953 529.168 756.199 521.459 751.034C513.751 745.869 507.742 738.526 504.192 729.934C500.643 721.341 499.712 711.886 501.518 702.762C503.323 693.639 507.785 685.258 514.337 678.679C520.89 672.101 529.239 667.62 538.329 665.804C547.419 663.988 556.842 664.918 565.405 668.477C573.969 672.035 581.288 678.063 586.438 685.796C591.588 693.53 594.336 702.623 594.336 711.924C594.321 724.388 589.381 736.337 580.601 745.152C571.821 753.966 559.917 758.928 547.498 758.949V758.949Z" fill="#00579B"/>
<path d="M932.44 654.985C918.246 644.337 903.498 637.92 885.622 637.92C866.064 637.92 847.308 645.717 833.478 659.595C819.649 673.474 811.88 692.297 811.88 711.924C811.88 731.551 819.649 750.375 833.478 764.253C847.308 778.132 866.064 785.929 885.622 785.929C903.439 785.929 918.306 779.512 932.5 768.843V788.71H960.769V634.681H932.44V654.985ZM885.899 758.949C876.635 758.93 867.586 756.155 859.893 750.976C852.2 745.797 846.209 738.446 842.678 729.851C839.147 721.257 838.233 711.805 840.052 702.689C841.871 693.574 846.342 685.204 852.899 678.637C859.456 672.071 867.806 667.602 876.893 665.796C885.979 663.989 895.396 664.926 903.952 668.488C912.509 672.05 919.821 678.078 924.966 685.809C930.11 693.54 932.856 702.628 932.856 711.924C932.835 724.407 927.878 736.371 919.073 745.188C910.269 754.005 898.337 758.955 885.899 758.949V758.949Z" fill="#00579B"/>
<path d="M408.249 653.078V634.681H382.157V788.73H408.249V687.627C408.249 680.375 412.208 674.197 417.058 669.27C421.909 664.343 430.5 661.8 437.785 661.8C442.224 661.916 446.61 662.796 450.752 664.402V636.032C450.752 635.854 445.249 635.715 443.645 635.655C418.147 634.701 408.249 653.078 408.249 653.078Z" fill="#00579B"/>
<path d="M521.663 384.536C528.592 381.198 564.463 363.079 575.47 357.219V320.167H521.663V384.556V384.536Z" fill="#00579B"/>
<path d="M338.466 437.839C342.202 438.544 345.989 438.936 349.79 439.011C350.74 439.011 351.65 439.011 352.62 439.011C355.036 439.011 357.57 438.912 360.123 438.733C376.599 437.423 392.894 434.393 408.744 429.694L375.782 185.827L305.643 193.773L338.466 437.839Z" fill="#00579B"/>
<path d="M418.959 426.575C434.321 421.767 450.732 415.707 467.817 408.694V212.468L468.213 212.091H521.663V266.129H575.51V212.488L575.925 212.071H629.376V327.578C629.376 327.578 703.791 283.632 713.788 277.433L688.112 75.6245L621.774 83.3131C624.169 88.697 630.92 99.8424 631.672 101.193C632.18 100.945 632.711 100.745 633.256 100.597C633.656 100.476 634.067 100.396 634.483 100.359C636.094 100.16 637.728 100.396 639.217 101.042C640.706 101.688 641.997 102.721 642.956 104.034C643.89 105.304 644.477 106.797 644.659 108.365C644.916 110.562 644.372 112.779 643.128 114.605C641.883 116.431 640.022 117.743 637.888 118.299C635.038 113.59 629.138 104.173 629.02 104.014C621.616 92.3327 614.529 81.7436 607.659 72.2273C601.76 64.0024 596.045 56.5854 590.515 49.9763C588.278 47.2148 586.002 44.6321 583.785 42.1487C580.993 39.0296 578.281 36.1886 575.589 33.4469C569.436 27.1186 562.665 21.4279 555.377 16.4607C544.132 8.9907 533.798 5.79212 524.118 6.62653C523.306 6.62653 522.475 6.8252 521.663 6.96427C503.49 9.90458 490.345 27.3279 479.219 49.8968C475.26 58.0025 471.459 66.8036 467.817 75.7239C465.322 81.982 462.848 88.3593 460.433 94.6571L456.869 103.856C454.335 110.372 451.742 116.809 449.089 123.047C446.436 129.285 443.507 135.682 440.596 141.344C439.449 141.019 438.378 140.464 437.449 139.713C436.521 138.962 435.753 138.03 435.192 136.974C434.517 135.65 434.193 134.175 434.249 132.69C434.306 131.204 434.741 129.758 435.514 128.49C436.287 127.222 437.371 126.174 438.663 125.447C439.955 124.72 441.412 124.339 442.893 124.338C443.56 124.352 444.224 124.438 444.872 124.597C446.674 118.855 448.832 112.2 451.306 103.856C451.306 103.538 451.504 103.24 451.564 102.922L377.644 111.504L418.959 426.575ZM521.663 14.474C522.682 14.2504 523.713 14.0846 524.751 13.9773C532.432 13.3018 540.892 15.8912 550.131 21.7453C552.466 23.2552 554.862 24.9439 557.317 26.8511C554.324 25.6229 551.256 24.5877 548.131 23.7519C540.926 21.7974 533.424 21.1847 525.999 21.944C524.553 22.083 523.108 22.3413 521.663 22.5996C512.754 24.3398 504.359 28.0973 497.115 33.586C504.282 23.5333 512.299 16.4607 521.663 14.474ZM462.432 109.835C463.204 107.849 463.956 106.001 464.709 104.054C465.461 102.107 466.411 99.7033 467.243 97.5378C467.421 97.0213 467.638 96.5246 467.817 96.0279C471.558 86.3328 475.32 76.6179 479.299 67.3797C482.325 61.1612 486.087 55.3313 490.503 50.016C498.403 40.1044 509.366 33.1144 521.663 30.149C523.35 29.7824 525.055 29.5039 526.771 29.3146C531.848 28.753 536.981 28.9673 541.994 29.9504C553.239 32.096 564.542 37.8972 575.51 46.8373C576.143 47.3936 576.777 47.9101 577.489 48.4465L579.212 49.9564C582.772 53.18 586.162 56.5885 589.367 60.168C593.544 65.4328 597.88 71.2538 602.334 77.492C604.056 79.9158 605.818 82.3793 607.58 84.962L469.994 100.856L461.145 113.014C461.581 112.001 462.016 110.908 462.432 109.835Z" fill="#00579B"/>
<path d="M723.112 271.632C726.062 269.784 826.47 204.362 831.716 200.786L822.293 128.669L820.313 128.907L706.187 142.159L723.112 271.632Z" fill="#00579B"/>
<path d="M360.124 504.79C371.462 505.284 382.821 504.585 394.015 502.704C400.409 501.731 407.081 500.38 413.97 498.731C432.237 494.342 450.22 488.835 467.816 482.241H467.975C468.113 482.241 468.252 482.142 468.391 482.062C485.554 475.784 503.391 468.414 521.663 460.209C535.521 453.971 549.675 447.295 563.889 440.342C567.769 438.435 571.642 436.501 575.509 434.541C579.614 432.474 583.712 430.375 587.803 428.243C601.674 421.117 615.531 413.74 629.376 406.111C646.856 396.555 664.119 386.741 680.985 376.906L683.242 375.595C683.994 375.138 684.786 374.681 685.578 374.244C703.395 363.814 720.618 353.424 737.049 343.331C749.956 335.385 762.369 327.656 774.167 320.186L790.895 309.538C801.922 302.465 821.718 289.532 821.718 289.532C821.718 289.532 835.794 280.313 841.515 276.459L840.743 270.618V270.062L840.228 266.088L835.794 231.957C826.866 237.917 816.433 244.95 804.792 252.599C800.338 255.539 795.745 258.559 790.935 261.678C788.698 263.128 786.461 264.579 784.184 266.088C769.733 275.446 753.915 285.538 737.088 296.028C724.518 303.875 711.353 311.922 697.872 320.107C693.061 323.007 688.171 325.948 683.262 328.868C676.663 332.842 669.959 336.815 663.149 340.788C652.036 347.252 640.785 353.682 629.395 360.079C620.896 364.847 612.371 369.569 603.818 374.244C594.395 379.317 584.979 384.31 575.569 389.224C565.776 394.283 556.01 399.237 546.27 404.085C538.035 408.058 529.852 411.972 521.722 415.826C512.418 420.17 503.18 424.309 494.007 428.243C485.178 432.077 476.388 435.693 467.797 439.09C462.194 441.256 456.631 443.381 451.168 445.368C438.3 450.03 425.894 454.004 413.95 457.288C401.968 460.68 389.79 463.334 377.485 465.235C371.546 466.109 365.607 466.725 360.104 466.983C350.795 467.612 341.445 467.072 332.27 465.374C329.923 464.909 327.609 464.292 325.341 463.527C318.987 461.648 313.165 458.29 308.349 453.726C303.533 449.162 299.859 443.521 297.626 437.262C297.626 437.262 295.646 431.302 294.973 428.203C292.281 415.17 293.112 400.111 295.825 384.973C296.478 381.377 297.23 377.761 298.081 374.205C300.35 364.752 303.099 355.423 306.317 346.252C308.415 340.014 310.632 334.153 312.77 328.868C310.632 333.06 308.474 337.57 306.317 342.239C301.476 352.665 297.175 363.334 293.429 374.205V374.205C291.331 380.363 289.47 386.661 287.886 392.979C284.907 404.494 283.234 416.311 282.897 428.203C282.753 435.205 283.384 442.201 284.778 449.063L285.095 450.514C287.649 462.611 293.726 473.675 302.555 482.301C303.248 482.956 303.941 483.612 304.693 484.288C305.446 484.963 305.723 485.182 306.257 485.599C314.869 492.691 326.252 498.314 340.98 501.89C343.178 502.446 345.435 502.962 347.79 503.419C351.869 504.135 355.988 504.593 360.124 504.79V504.79Z" fill="#00579B"/>
<path d="M849.374 320.187L848.899 316.452L845.573 290.963C845.355 291.122 844.722 291.5 844.722 291.5C831.458 300.281 816.651 309.936 800.655 320.148L790.875 326.386C785.808 329.604 780.621 332.843 775.355 336.161C763.061 343.869 750.233 351.776 737.029 359.782C729.11 364.55 721.113 369.352 713.036 374.186C703.23 379.974 693.285 385.775 683.202 391.589C670.533 398.861 657.665 406.072 644.738 413.205C639.61 415.986 634.503 418.807 629.336 421.549C625.199 423.754 621.041 426.019 616.884 428.184C603.027 435.495 589.268 442.548 575.509 449.283C562.463 455.74 549.477 461.839 536.669 467.64C531.66 469.885 526.652 472.09 521.663 474.196C515.269 476.998 508.874 479.68 502.599 482.242C490.721 487.03 479.14 491.441 467.816 495.375C461.422 497.639 455.147 499.686 448.95 501.593C436.835 505.354 425.175 508.454 413.97 510.891C403.03 513.291 391.947 514.983 380.791 515.957C376.08 516.334 371.507 516.573 367.131 516.573C364.756 516.573 362.42 516.573 360.124 516.414C354.259 516.15 348.418 515.486 342.643 514.427C342.525 514.414 342.405 514.414 342.287 514.427C347.941 517.784 353.908 520.579 360.104 522.771L360.519 522.93C363.956 524.089 367.452 525.064 370.992 525.851C385.134 528.636 399.604 529.352 413.95 527.976C417.137 527.738 420.364 527.48 423.631 527.062C438.526 525.167 453.28 522.287 467.797 518.44C476.164 516.255 484.742 513.785 493.532 511.03C502.77 508.103 512.161 504.884 521.703 501.374C537.282 495.673 553.159 489.236 569.214 482.322C571.339 481.408 573.457 480.474 575.569 479.521L581.29 477.017C597.325 469.826 613.4 462.177 629.395 454.21C646.321 445.826 663.049 437.125 679.5 428.264L683.262 426.277C685.063 425.304 686.865 424.29 688.646 423.337C705.295 414.238 721.548 405.059 737.088 396.02C749.837 388.629 762.111 381.358 773.791 374.305C779.73 370.769 785.392 367.252 790.935 363.815C801.17 357.537 810.731 351.478 819.759 345.796C828.786 340.114 836.764 334.909 844.148 330.081L844.821 329.704C844.899 329.639 844.986 329.586 845.078 329.545V329.545L850.206 326.187L849.374 320.187Z" fill="#00579B"/>
</g>
<defs>
<clipPath id="clip0_3_222">
<rect width="1144" height="788" fill="white" transform="translate(0.44104 0.72998)"/>
</clipPath>
</defs>
</svg>
